# xmcd
#
# Track frame offsets: 
#        150
#        12800
#        50123
#        61668
#        86720
#        101115
#        121068
#        136703
#        149385
#        174077
#        190710
#        217835
#        244575
#        262430
#        282435
#        307403
#        326395
#        340565
#
# Disc length: 4798 seconds
#
# Revision: 1
# Processed by: cddbd v1.5.2PL0 Copyright (c) Steve Scherf et al.
# Submitted via: ExactAudioCopy v1.3
#
DISCID=0212bc12
DTITLE=Mississippi Fred McDowell - Akella Presents - Greatest Bluesmen
DTITLE=Various Artist - Vol. 04  CD2
DYEAR=2017
DGENRE=Blues
TTITLE0=Glory Hallelujah
TTITLE1=Louise
TTITLE2=My Baby
TTITLE3=Leevee Camp Blues
TTITLE4=When the Saints Go Marching In
TTITLE5=Diamond Ring
TTITLE6=Dankin's Farm
TTITLE7=You Ain't Treatin' Me Right
TTITLE8=Ethel Mae Blues
TTITLE9=Meet Me Down in Froggy Bottom
TTITLE10=Mama Said I'm Crazy
TTITLE11=I Heard Somebody Calling Me
TTITLE12=Keep Your Lamp Trimmed and Burning
TTITLE13=I Wonder What Have I Done Wrong
TTITLE14=I Worked Old Lu and I Worked Old Bess
TTITLE15=Jim, Steam Killed Lula
TTITLE16=Worried Now, Won't Be Worried Long
TTITLE17=Bye, Bye Little Girl
EXTD=
EXTT0=
EXTT1=
EXTT2=
EXTT3=
EXTT4=
EXTT5=
EXTT6=
EXTT7=
EXTT8=
EXTT9=
EXTT10=
EXTT11=
EXTT12=
EXTT13=
EXTT14=
EXTT15=
EXTT16=
EXTT17=
PLAYORDER=
